<svg width="23" height="68" viewBox="0 0 23 68" fill="none" xmlns="http://www.w3.org/2000/svg">
<path d="M9.85148 21.7385C12.0367 21.9655 14.1106 22.7995 15.8254 24.1393C17.5394 25.4786 18.8204 27.2699 19.5236 29.2984C20.2263 31.3271 20.3228 33.5107 19.7931 35.5887V35.596L14.3656 56.7872L14.3581 56.7945L14.6276 56.6558C17.4534 55.2463 20.9211 56.3389 22.3683 59.0931C23.8143 61.8476 22.6934 65.2278 19.8679 66.6385L19.5086 66.8136C17.5422 67.7722 15.3316 68.1641 13.1454 67.9374C10.9585 67.71 8.87937 66.8782 7.16395 65.5366C5.44839 64.1947 4.16728 62.395 3.4658 60.3628C2.76541 58.3323 2.67793 56.1508 3.21127 54.0726L8.63124 32.8887L8.58632 32.9106L8.2719 33.0565C5.41889 34.4131 1.97656 33.2607 0.583639 30.4806C-0.808092 27.6996 0.374203 24.3441 3.22625 22.9863L3.54066 22.8331H3.54815C5.50048 21.8948 7.68619 21.5136 9.85148 21.7385ZM11.5583 0C14.7336 0 17.3077 2.50912 17.3077 5.60429V5.66266C17.3077 8.75782 14.7336 11.2669 11.5583 11.2669H11.4984C8.32315 11.2669 5.74907 8.75782 5.74907 5.66266V5.60429C5.74907 2.50912 8.32315 0 11.4984 0H11.5583Z" fill="#A64598"/>
</svg>
