<svg width="43" height="43" viewBox="0 0 43 43" fill="none" xmlns="http://www.w3.org/2000/svg">
<path d="M41.5 21.5H36.54C35.6659 21.4981 34.8153 21.7826 34.1182 22.3099C33.4212 22.8373 32.916 23.5784 32.68 24.42L27.98 41.14C27.9497 41.2439 27.8865 41.3351 27.8 41.4C27.7135 41.4649 27.6082 41.5 27.5 41.5C27.3918 41.5 27.2865 41.4649 27.2 41.4C27.1135 41.3351 27.0503 41.2439 27.02 41.14L15.98 1.86C15.9497 1.75614 15.8865 1.66491 15.8 1.6C15.7135 1.53509 15.6082 1.5 15.5 1.5C15.3918 1.5 15.2865 1.53509 15.2 1.6C15.1135 1.66491 15.0503 1.75614 15.02 1.86L10.32 18.58C10.0849 19.4183 9.58276 20.157 8.88973 20.684C8.19669 21.211 7.35064 21.4975 6.48 21.5H1.5" stroke="#3E7C9E" stroke-width="3" stroke-linecap="round" stroke-linejoin="round"/>
</svg>
